<?xml version="1.0" encoding="UTF-8"?>
<svg width="204px" height="63px" viewBox="0 0 204 63" version="1.1" xmlns="http://www.w3.org/2000/svg" xmlns:xlink="http://www.w3.org/1999/xlink">
    <!-- Generator: Sketch 54 (76480) - https://sketchapp.com -->
    <title>Group</title>
    <desc>Created with Sketch.</desc>
    <g id="Page-1" stroke="none" stroke-width="1" fill="none" fill-rule="evenodd">
        <g id="Artboard" transform="translate(-24.000000, -27.000000)" fill="#FFFFFF">
            <g id="Group" transform="translate(23.999900, 26.999800)">
                <polygon id="Fill-1" points="107.3423 19.6059 97.0073 19.6059 85.1453 29.0739 90.2413 7.5039 83.1143 7.5039 73.1393 49.5929 80.2663 49.5929 82.7813 39.2199 88.4033 34.6289 91.9203 49.5929 99.8733 49.5929 93.9823 30.1049"></polygon>
                <path d="M185.6592,40.5434 C185.0642,41.2654 184.7652,41.5084 184.4112,41.8084 C183.7592,42.2924 183.1642,42.5944 182.8652,42.7734 C182.2752,43.1374 180.0752,44.4634 177.5802,44.4634 C176.9912,44.4634 174.5542,44.4054 173.4852,42.2314 C173.1272,41.5674 173.0702,40.9044 173.0702,40.6024 C173.0702,39.6374 173.4272,38.9124 173.6062,38.6134 C174.6122,36.8024 176.3962,36.5594 178.2332,36.3184 C178.8272,36.2594 179.3642,36.1984 179.9592,36.1394 L186.8442,35.2944 L185.6592,40.5434 Z M188.7432,19.6064 C186.3702,19.0034 184.5282,19.0634 183.5222,19.0634 C176.9912,19.0634 173.9012,20.9354 171.9432,23.3474 C170.1592,25.5214 169.8062,27.3284 169.7432,28.4754 L177.2852,28.4754 C177.4062,27.8744 177.5222,27.2084 177.8222,26.6064 C179.0652,24.0714 182.6912,24.1914 183.0432,24.1914 C186.7272,24.1914 188.5072,25.2184 188.5072,27.3904 C188.5072,28.2934 188.2702,29.0804 188.0912,29.8634 C186.7852,30.3474 185.4802,30.5264 184.1122,30.6474 L178.5332,31.1304 C175.5062,31.3714 172.5382,31.6734 169.8642,33.4224 C167.1332,35.2324 165.7062,38.3694 165.7062,41.6294 C165.6482,45.0064 167.6642,50.1974 175.5642,50.1974 C180.4912,50.1974 183.1062,47.9024 184.5912,46.5764 C184.4112,48.0844 184.5502,49.4124 184.6132,50.1964 L194.1142,50.1974 C193.1982,48.9904 192.3072,46.8374 192.3072,44.9134 C192.3072,42.9204 193.0182,39.6024 193.4342,37.7324 L195.0852,30.5454 C195.3312,29.2304 195.4542,28.2144 195.4542,27.2084 C195.4542,21.3574 190.3482,19.9694 188.7432,19.6064 L188.7432,19.6064 Z" id="Fill-2"></path>
                <path d="M123.1553,40.2881 C122.5613,41.0101 122.2613,41.2531 121.9083,41.5531 C121.2553,42.0371 120.6603,42.3391 120.3613,42.5181 C119.7713,42.8821 117.5723,44.2081 115.0763,44.2081 C114.4873,44.2081 112.0503,44.1491 110.9823,41.9751 C110.6243,41.3121 110.5663,40.6491 110.5663,40.3471 C110.5663,39.3821 110.9243,38.6571 111.1023,38.3571 C112.1083,36.5471 113.8923,36.3041 115.7293,36.0631 C116.3243,36.0041 116.8613,35.9431 117.4553,35.8841 L124.3403,35.0391 L123.1553,40.2881 Z M126.2403,19.3511 C123.8663,18.7481 122.0243,18.8081 121.0183,18.8081 C114.4873,18.8081 111.3973,20.6791 109.4393,23.0911 C107.6553,25.2651 107.3023,27.0731 107.2393,28.2201 L114.7813,28.2201 C114.9033,27.6191 115.0183,26.9531 115.3193,26.3511 C116.5613,23.8161 120.1873,23.9361 120.5403,23.9361 C124.2243,23.9361 126.0033,24.9631 126.0033,27.1351 C126.0033,28.0381 125.7663,28.8251 125.5873,29.6081 C124.2823,30.0921 122.9763,30.2711 121.6083,30.3921 L116.0293,30.8751 C113.0033,31.1161 110.0343,31.4181 107.3613,33.1671 C104.6293,34.9771 103.2023,38.1141 103.2023,41.3741 C103.1443,44.7511 105.1603,49.9411 113.0613,49.9411 C117.9873,49.9411 120.6033,47.6471 122.0873,46.3211 C121.9083,47.8291 122.0463,49.1571 122.1093,49.9401 L131.6103,49.9411 C130.6943,48.7351 129.8033,46.5821 129.8033,44.6571 C129.8033,42.6651 130.5143,39.3471 130.9303,37.4771 L132.5813,30.2901 C132.8283,28.9751 132.9503,27.9591 132.9503,26.9531 C132.9503,21.1021 127.8453,19.7141 126.2403,19.3511 L126.2403,19.3511 Z" id="Fill-4"></path>
                <polygon id="Fill-6" points="197.6899 20.3657 198.3969 20.3657 198.3969 22.3907 198.9429 22.3907 198.9429 20.3657 199.6479 20.3657 199.6479 19.8747 197.6899 19.8747"></polygon>
                <polygon id="Fill-8" points="202.6118 19.8623 202.0388 21.5043 202.0318 21.5043 201.4618 19.8623 200.6368 19.8623 200.6368 22.3783 201.1818 22.3783 201.1818 20.4483 201.1888 20.4483 201.8148 22.3783 202.2308 22.3783 202.8818 20.4483 202.8878 20.4483 202.8878 22.3783 203.4338 22.3783 203.4338 19.8623"></polygon>
                <path d="M158.5982,19.6059 L155.7452,32.0349 C155.0932,34.8719 154.3822,38.3109 152.5982,40.7849 C150.6982,43.4989 148.2082,43.9209 146.9612,43.9209 C144.4082,43.9209 143.2772,42.2929 143.0402,41.3269 C142.8612,40.7849 142.8612,40.4819 142.8612,40.1799 C142.8612,38.5519 143.5142,35.7759 143.8712,34.2679 L147.1982,19.6059 L140.0712,19.6059 L136.5082,35.1129 C136.0932,36.9819 135.3822,40.2999 135.3822,42.2929 C135.3822,47.6009 139.4772,50.1359 144.2872,50.1359 C148.9772,50.1359 151.5512,47.7409 152.1132,47.2159 L148.5552,62.0889 L155.6282,62.0889 L165.7192,19.6059 L158.5982,19.6059 Z" id="Fill-10"></path>
                <path d="M62.21,31.105 C62.21,48.284 48.284,62.21 31.105,62.21 C13.926,62.21 -3.55271368e-15,48.284 -3.55271368e-15,31.105 C-3.55271368e-15,13.926 13.926,3.55271368e-15 31.105,3.55271368e-15 C48.284,3.55271368e-15 62.21,13.926 62.21,31.105 Z M16.7837,41.9726 L16.7837,46.2836 C21.0057,48.7686 25.6537,50.0026 31.1047,50.0026 C36.5567,50.0026 40.3207,48.7116 44.7047,46.9156 L44.5747,42.3616 C41.3817,44.9416 35.5297,46.2836 31.1047,46.2836 C26.6807,46.2836 19.9757,44.5526 16.7837,41.9726 Z M19.4257,29.8406 C22.6177,32.4216 26.6807,33.9676 31.1047,33.9676 C35.5297,33.9676 39.5927,32.4216 42.7847,29.8406 L45.4267,32.4826 C41.5517,35.7306 36.5567,37.6866 31.1047,37.6866 C25.6537,37.6866 20.6587,35.7306 16.7837,32.4826 L19.4257,29.8406 Z M24.7357,24.5316 C26.5417,25.7906 28.7367,26.5306 31.1047,26.5306 C33.4737,26.5306 35.6687,25.7906 37.4747,24.5316 L40.1357,27.1916 C37.6317,29.1086 34.5017,30.2496 31.1047,30.2496 C27.7077,30.2496 24.5787,29.1086 22.0747,27.1916 L24.7357,24.5316 Z M31.1047,18.1606 L34.7827,21.8386 C33.6977,22.4566 32.4427,22.8116 31.1047,22.8116 C29.7667,22.8116 28.5127,22.4566 27.4277,21.8386 L31.1047,18.1606 Z M52.4427,33.5456 L31.1047,12.2076 L9.7677,33.5456 C15.5417,38.3836 22.9827,41.9726 31.1047,41.9726 C39.2277,41.9726 46.6687,38.3836 52.4427,33.5456 Z" id="Combined-Shape"></path>
            </g>
        </g>
    </g>
</svg>